<?xml version="1.0" encoding="iso-8859-1"?>
<!-- Generator: Adobe Illustrator 17.1.0, SVG Export Plug-In . SVG Version: 6.00 Build 0)  -->
<!DOCTYPE svg PUBLIC "-//W3C//DTD SVG 1.1//EN" "http://www.w3.org/Graphics/SVG/1.1/DTD/svg11.dtd">
<svg version="1.1" id="Capa_1" xmlns="http://www.w3.org/2000/svg" xmlns:xlink="http://www.w3.org/1999/xlink" x="0px" y="0px"
	 viewBox="0 0 221.276 221.276" style="enable-background:new 0 0 221.276 221.276;" xml:space="preserve">
<path d="M163.669,94.554c-19.671,0-35.675,14.46-35.675,32.233v30.131c0,0.341,0.035,0.674,0.1,0.997
	c-0.065,0.322-0.1,0.655-0.1,0.997v30.13c0,12.26-11.518,22.234-25.675,22.234s-25.675-9.974-25.675-22.234v-30.13
	c0-0.246-0.038-0.482-0.073-0.719h18.69c3.846,0,6.976-3.129,6.976-6.976v-9.261c0-2.515,2.046-4.56,4.561-4.56
	c8.028,0,14.56-6.532,14.56-14.56V27.693C121.357,12.423,108.934,0,93.664,0H49.625C34.354,0,21.931,12.423,21.931,27.693v95.142
	c0,8.028,6.532,14.56,14.56,14.56h2.37c2.515,0,4.56,2.045,4.56,4.56v9.261c0,3.846,3.129,6.976,6.976,6.976h16.32
	c-0.034,0.237-0.073,0.473-0.073,0.719v30.13c0,17.774,16.004,32.234,35.675,32.234s35.675-14.46,35.675-32.234v-30.13
	c0-0.341-0.035-0.674-0.1-0.997c0.065-0.322,0.1-0.655,0.1-0.997v-30.131c0-12.26,11.518-22.233,25.675-22.233
	c14.157,0,25.675,9.974,25.675,22.233v30.131c0,2.761,2.239,5,5,5s5-2.239,5-5v-30.131
	C199.345,109.014,183.341,94.554,163.669,94.554z M38.162,36.583h36.047c2.761,0,5,2.239,5,5s-2.239,5-5,5H38.162
	c-2.761,0-5-2.239-5-5S35.4,36.583,38.162,36.583z M38.162,52.527h36.047c2.761,0,5,2.239,5,5s-2.239,5-5,5H38.162
	c-2.761,0-5-2.239-5-5S35.4,52.527,38.162,52.527z M38.162,68.472h36.047c2.761,0,5,2.239,5,5s-2.239,5-5,5H38.162
	c-2.761,0-5-2.239-5-5S35.4,68.472,38.162,68.472z M53.421,148.192v-6.237c0-8.028-6.532-14.56-14.56-14.56h-2.37
	c-2.515,0-4.56-2.045-4.56-4.56v-33.42h79.426v33.42c0,2.515-2.045,4.56-4.56,4.56c-8.028,0-14.56,6.532-14.56,14.56v6.237H53.421z"
	/>
<g>
</g>
<g>
</g>
<g>
</g>
<g>
</g>
<g>
</g>
<g>
</g>
<g>
</g>
<g>
</g>
<g>
</g>
<g>
</g>
<g>
</g>
<g>
</g>
<g>
</g>
<g>
</g>
<g>
</g>
</svg>
